<svg width="45" height="15" viewBox="0 0 45 15" fill="none" xmlns="http://www.w3.org/2000/svg">
<path d="M4.93164 7.83203L6.69922 3.58398L8.45703 7.83203H4.93164ZM6.01562 0.986328C5.96354 0.986328 5.92448 1.01237 5.89844 1.06445L0.185547 14.8242C0.166016 14.8633 0.169271 14.9023 0.195312 14.9414C0.221354 14.9805 0.257161 15 0.302734 15H1.86523C1.92383 15 1.96289 14.974 1.98242 14.9219L4.21875 9.53125H9.16992L11.4062 14.9219C11.4258 14.974 11.4648 15 11.5234 15H13.0859C13.1315 15 13.1673 14.9805 13.1934 14.9414C13.2194 14.9023 13.2227 14.8633 13.2031 14.8242L7.49023 1.06445C7.4707 1.01237 7.43164 0.986328 7.37305 0.986328H6.01562ZM14.0629 13.2129V1.13281C14.0629 1.04818 14.0206 1.00586 13.9359 1.00586H12.4027C12.3181 1.00586 12.2758 1.04818 12.2758 1.13281V14.873C12.2758 14.9577 12.3181 15 12.4027 15H20.1762C20.2608 15 20.3031 14.9577 20.3031 14.873V13.3398C20.3031 13.2552 20.2608 13.2129 20.1762 13.2129H14.0629ZM24.0242 11.9727L20.3035 1.14258C20.2775 1.05794 20.2189 1.01562 20.1277 1.01562H18.741C18.6759 1.01562 18.6238 1.04167 18.5848 1.09375C18.5457 1.14583 18.5359 1.20443 18.5555 1.26953L23.2332 14.873C23.2592 14.9577 23.3178 15 23.409 15H24.6492C24.7404 15 24.799 14.9577 24.825 14.873L29.5027 1.26953C29.5223 1.20443 29.5125 1.14583 29.4734 1.09375C29.4344 1.04167 29.3823 1.01562 29.3172 1.01562H27.9305C27.8393 1.01562 27.7775 1.05794 27.7449 1.14258L24.0242 11.9727ZM28.0285 1.01562C27.9439 1.01562 27.9016 1.05794 27.9016 1.14258V14.873C27.9016 14.9577 27.9439 15 28.0285 15H37.1105C37.1952 15 37.2375 14.9577 37.2375 14.873V13.3496C37.2375 13.265 37.1952 13.2227 37.1105 13.2227H29.6789V8.89648H35.0598C35.1444 8.89648 35.1867 8.85417 35.1867 8.76953V7.24609C35.1867 7.16146 35.1444 7.11914 35.0598 7.11914H29.6789V2.79297H37.1105C37.1952 2.79297 37.2375 2.75065 37.2375 2.66602V1.14258C37.2375 1.05794 37.1952 1.01562 37.1105 1.01562H28.0285ZM40.441 6.71875L40.4117 6.69922C39.5654 6.33464 38.9762 6.00911 38.6441 5.72266C38.247 5.38411 38.0484 4.98698 38.0484 4.53125C38.0484 3.3724 38.8264 2.79297 40.3824 2.79297C40.9879 2.79297 41.5608 2.91992 42.1012 3.17383C42.29 3.25846 42.4723 3.35938 42.648 3.47656C42.7132 3.52214 42.775 3.56771 42.8336 3.61328C42.8792 3.65234 42.9215 3.69141 42.9605 3.73047C43.0191 3.77604 43.0777 3.77279 43.1363 3.7207L43.693 3.19336L44.2398 2.67578C44.3115 2.61068 44.3115 2.54883 44.2398 2.49023C44.1878 2.43815 44.1292 2.38281 44.0641 2.32422C43.9729 2.2526 43.8818 2.18424 43.7906 2.11914C43.5367 1.93034 43.2665 1.76432 42.9801 1.62109C42.1663 1.21745 41.3004 1.01562 40.3824 1.01562C39.1129 1.01562 38.1103 1.33138 37.3746 1.96289C36.6389 2.58789 36.2711 3.44401 36.2711 4.53125C36.2711 5.53385 36.678 6.38346 37.4918 7.08008C37.7978 7.34049 38.1689 7.58464 38.6051 7.8125C38.7744 7.90365 38.9632 7.99805 39.1715 8.0957L39.4352 8.21289L39.6793 8.32031L40.1383 8.54492L40.1676 8.55469C41.1311 8.97786 41.8115 9.36198 42.2086 9.70703C42.6773 10.1107 42.9117 10.5827 42.9117 11.123C42.9117 12.5228 41.9905 13.2227 40.148 13.2227C39.4319 13.2227 38.7581 13.0729 38.1266 12.7734C37.8987 12.6628 37.6871 12.5391 37.4918 12.4023C37.4137 12.3503 37.3421 12.2982 37.277 12.2461C37.2249 12.2005 37.176 12.1582 37.1305 12.1191C37.0719 12.0671 37.0133 12.0671 36.9547 12.1191L35.8414 13.1641C35.7763 13.2292 35.7763 13.291 35.8414 13.3496C35.9 13.4082 35.9651 13.4668 36.0367 13.5254C36.1344 13.6035 36.2353 13.6816 36.3395 13.7598C36.6194 13.9681 36.9189 14.1536 37.2379 14.3164C38.1494 14.7721 39.1194 15 40.148 15C41.5478 15 42.6546 14.6517 43.4684 13.9551C44.2822 13.265 44.6891 12.321 44.6891 11.123C44.6891 10.0228 44.2366 9.08854 43.3316 8.32031C42.9931 8.03385 42.5797 7.76042 42.0914 7.5C41.9026 7.40234 41.6943 7.29818 41.4664 7.1875L41.1734 7.06055C41.1083 7.02799 41.0139 6.98568 40.8902 6.93359L40.441 6.71875Z" fill="white"/>
</svg>
